<svg width="12" height="14" viewBox="0 0 12 14" fill="none" xmlns="http://www.w3.org/2000/svg">
<g clip-path="url(#clip0)">
<path d="M9.52382 2.84091C8.47185 2.84091 7.61906 3.85845 7.61906 5.11363H8.57143C8.57143 4.48604 8.99783 3.97726 9.52382 3.97726C10.0498 3.97726 10.4762 4.48601 10.4762 5.11363C10.4762 5.74125 10.0498 6.25 9.52382 6.25H2.85714V7.38637H9.52382C10.5758 7.38635 11.4286 6.36881 11.4286 5.11363C11.4286 3.85845 10.5758 2.84091 9.52382 2.84091Z" fill="black"/>
<path d="M7.58432 8.52274H1.90474V9.65911H7.58432C8.1103 9.65911 8.53671 10.1679 8.53671 10.7955V10.8369C8.53671 11.4416 8.12586 11.9319 7.61903 11.9319V13.0682C8.65184 13.0682 9.48907 12.0692 9.48907 10.8369V10.7955C9.4891 9.54027 8.63631 8.52274 7.58432 8.52274Z" fill="black"/>
<path d="M1.90475 6.25H0V7.38637H1.90475V6.25Z" fill="black"/>
<path d="M4.7562 0.568176C3.72024 0.568176 2.88042 1.57024 2.88042 2.80632V2.94993H3.8328V2.80632C3.8328 2.19783 4.24622 1.70455 4.7562 1.70455C5.26617 1.70455 5.67959 2.19783 5.67959 2.80632V2.84092C5.67959 3.46851 5.25318 3.97729 4.7272 3.97729H0.952402V5.11364H4.72722C5.77919 5.11364 6.63198 4.09611 6.63198 2.84092V2.80632C6.63198 1.57024 5.79216 0.568176 4.7562 0.568176Z" fill="black"/>
</g>
<defs>
<clipPath id="clip0">
<rect width="11.4286" height="13.6364" fill="white"/>
</clipPath>
</defs>
</svg>
