<svg width="64" height="35" viewBox="0 0 64 35" fill="none" xmlns="http://www.w3.org/2000/svg">
<path d="M31.8475 33.5766C42.0987 33.5766 50.409 26.2727 50.409 17.2628C50.409 8.25293 42.0987 0.948975 31.8475 0.948975C21.5963 0.948975 13.286 8.25293 13.286 17.2628C13.286 26.2727 21.5963 33.5766 31.8475 33.5766Z" fill="#FFDF9C"/>
<path d="M50.9763 17.3722H9.47133C8.20958 17.3722 7.18665 18.4477 7.18665 19.7744V20.2013C7.18665 21.528 8.20958 22.6035 9.47133 22.6035H50.9763C52.2381 22.6035 53.261 21.528 53.261 20.2013V19.7744C53.261 18.4477 52.2381 17.3722 50.9763 17.3722Z" fill="#F2F2F2" fill-opacity="0.8"/>
<path d="M61.2984 21.8292H19.7937C18.5319 21.8292 17.509 22.9047 17.509 24.2314V24.6583C17.509 25.985 18.5319 27.0605 19.7937 27.0605H61.2984C62.5602 27.0605 63.5833 25.985 63.5833 24.6583V24.2314C63.5833 22.9047 62.5602 21.8292 61.2984 21.8292Z" fill="#F2F2F2" fill-opacity="0.9"/>
<path d="M43.7896 25.7051H2.28468C1.02289 25.7051 0 26.7806 0 28.1073V28.5342C0 29.8609 1.02289 30.9364 2.28468 30.9364H43.7896C45.0514 30.9364 46.0743 29.8609 46.0743 28.5342V28.1073C46.0743 26.7806 45.0514 25.7051 43.7896 25.7051Z" fill="#F2F2F2" fill-opacity="0.8"/>
<rect x="0.5" y="0.5" width="62.5833" height="34" stroke="white"/>
</svg>
