<svg width="109" height="60" viewBox="0 0 62 39" fill="none" xmlns="http://www.w3.org/2000/svg">
<path d="M29.5452 38.4181C41.4885 38.4181 51.1704 29.9086 51.1704 19.4116C51.1704 8.91454 41.4885 0.405029 29.5452 0.405029C17.602 0.405029 7.92004 8.91454 7.92004 19.4116C7.92004 29.9086 17.602 38.4181 29.5452 38.4181Z" fill="#FFDF9C"/>
<path d="M45.1726 33.2753H14.7829C13.8591 33.2753 13.1101 34.0627 13.1101 35.0342V35.3467C13.1101 36.3181 13.8591 37.1056 14.7829 37.1056H45.1726C46.0964 37.1056 46.8454 36.3181 46.8454 35.3467V35.0342C46.8454 34.0627 46.0964 33.2753 45.1726 33.2753Z" fill="#F2F2F2" fill-opacity="0.8"/>
<path d="M50.661 18.0271H9.48322C8.23142 18.0271 7.21655 19.0941 7.21655 20.4104V20.8339C7.21655 22.1501 8.23142 23.2171 9.48322 23.2171H50.661C51.9128 23.2171 52.9277 22.1501 52.9277 20.8339V20.4104C52.9277 19.0941 51.9128 18.0271 50.661 18.0271Z" fill="#F2F2F2" fill-opacity="0.8"/>
<path d="M59.5896 22.7474H18.4121C17.1602 22.7474 16.1454 23.8145 16.1454 25.1307V25.5542C16.1454 26.8705 17.1602 27.9375 18.4121 27.9375H59.5896C60.8414 27.9375 61.8565 26.8705 61.8565 25.5542V25.1307C61.8565 23.8145 60.8414 22.7474 59.5896 22.7474Z" fill="#F2F2F2" fill-opacity="0.9"/>
<path d="M51.3642 28.0852H10.1867C8.93485 28.0852 7.92004 29.1522 7.92004 30.4684V30.892C7.92004 32.2082 8.93485 33.2752 10.1867 33.2752H51.3642C52.616 33.2752 53.6311 32.2082 53.6311 30.892V30.4684C53.6311 29.1522 52.616 28.0852 51.3642 28.0852Z" fill="#F2F2F2" fill-opacity="0.9"/>
<path d="M44.4445 25.2351H3.26667C2.01482 25.2351 1 26.3021 1 27.6184V28.0419C1 29.3581 2.01482 30.4251 3.26667 30.4251H44.4445C45.6964 30.4251 46.7112 29.3581 46.7112 28.0419V27.6184C46.7112 26.3021 45.6964 25.2351 44.4445 25.2351Z" fill="#F2F2F2" fill-opacity="0.8"/>
</svg>
