<?xml version="1.0" encoding="UTF-8" standalone="no"?>
<svg
   xmlns:dc="http://purl.org/dc/elements/1.1/"
   xmlns:cc="http://creativecommons.org/ns#"
   xmlns:rdf="http://www.w3.org/1999/02/22-rdf-syntax-ns#"
   xmlns:svg="http://www.w3.org/2000/svg"
   xmlns="http://www.w3.org/2000/svg"
   xmlns:sodipodi="http://sodipodi.sourceforge.net/DTD/sodipodi-0.dtd"
   xmlns:inkscape="http://www.inkscape.org/namespaces/inkscape"
   width="96"
   height="96"
   viewBox="0 0 54.605505 62.4"
   version="1.1"
   id="svg14"
   sodipodi:docname="cloudy.svg"
   style="fill:none"
   inkscape:version="0.92.4 (5da689c313, 2019-01-14)">
  <metadata
     id="metadata20">
    <rdf:RDF>
      <cc:Work
         rdf:about="">
        <dc:format>image/svg+xml</dc:format>
        <dc:type
           rdf:resource="http://purl.org/dc/dcmitype/StillImage" />
        <dc:title></dc:title>
      </cc:Work>
    </rdf:RDF>
  </metadata>
  <defs
     id="defs18" />
  <sodipodi:namedview
     pagecolor="#ffffff"
     bordercolor="#666666"
     borderopacity="1"
     objecttolerance="10"
     gridtolerance="10"
     guidetolerance="10"
     inkscape:pageopacity="0"
     inkscape:pageshadow="2"
     inkscape:window-width="1920"
     inkscape:window-height="1057"
     id="namedview16"
     showgrid="false"
     inkscape:zoom="4.073973"
     inkscape:cx="63.424105"
     inkscape:cy="27.241184"
     inkscape:window-x="-8"
     inkscape:window-y="-8"
     inkscape:window-maximized="1"
     inkscape:current-layer="svg14" />
  <path
     d="m 25.556465,48.415949 c 11.9433,0 21.6252,-8.5095 21.6252,-19.0065 0,-10.49706 -9.6819,-19.006571 -21.6252,-19.006571 -11.9432,0 -21.6251603,8.509511 -21.6251603,19.006571 0,10.497 9.6819603,19.0065 21.6251603,19.0065 z"
     id="path2"
     inkscape:connector-curvature="0"
     style="fill:#ffdf9c" />
  <path
     d="m 41.183865,43.273149 h -30.3897 c -0.9238003,0 -1.6728003,0.7874 -1.6728003,1.7589 v 0.3125 c 0,0.9714 0.749,1.7589 1.6728003,1.7589 h 30.3897 c 0.9238,0 1.6728,-0.7875 1.6728,-1.7589 v -0.3125 c 0,-0.9715 -0.749,-1.7589 -1.6728,-1.7589 z"
     id="path4"
     inkscape:connector-curvature="0"
     style="fill:#f2f2f2;fill-opacity:0.8" />
  <path
     d="M 46.672265,28.024949 H 5.4944847 c -1.2518,0 -2.26667,1.067 -2.26667,2.3833 v 0.4235 c 0,1.3162 1.01487,2.3832 2.26667,2.3832 H 46.672265 c 1.2518,0 2.2667,-1.067 2.2667,-2.3832 v -0.4235 c 0,-1.3163 -1.0149,-2.3833 -2.2667,-2.3833 z"
     id="path6"
     inkscape:connector-curvature="0"
     style="fill:#f2f2f2;fill-opacity:0.8" />
  <path
     d="m 55.600865,32.745249 h -41.1775 c -1.2519,0 -2.2667,1.0671 -2.2667,2.3833 v 0.4235 c 0,1.3163 1.0148,2.3833 2.2667,2.3833 h 41.1775 c 1.2518,0 2.2669,-1.067 2.2669,-2.3833 v -0.4235 c 0,-1.3162 -1.0151,-2.3833 -2.2669,-2.3833 z"
     id="path8"
     inkscape:connector-curvature="0"
     style="fill:#f2f2f2;fill-opacity:0.9" />
  <path
     d="M 47.375465,38.083049 H 6.1979647 c -1.25185,0 -2.26666,1.067 -2.26666,2.3832 v 0.4236 c 0,1.3162 1.01481,2.3832 2.26666,2.3832 H 47.375465 c 1.2518,0 2.2669,-1.067 2.2669,-2.3832 v -0.4236 c 0,-1.3162 -1.0151,-2.3832 -2.2669,-2.3832 z"
     id="path10"
     inkscape:connector-curvature="0"
     style="fill:#f2f2f2;fill-opacity:0.9" />
  <path
     d="M 40.455765,35.232949 H -0.72206531 c -1.25184999,0 -2.26666999,1.067 -2.26666999,2.3833 v 0.4235 c 0,1.3162 1.01482,2.3832 2.26666999,2.3832 H 40.455765 c 1.2519,0 2.2667,-1.067 2.2667,-2.3832 v -0.4235 c 0,-1.3163 -1.0148,-2.3833 -2.2667,-2.3833 z"
     id="path12"
     inkscape:connector-curvature="0"
     style="fill:#f2f2f2;fill-opacity:0.8" />
</svg>
