<svg width="109" height="60" viewBox="0 0 109 60" fill="none" xmlns="http://www.w3.org/2000/svg">
<path d="M52.0285 59.9178C67.7325 59.9178 80.4632 46.5324 80.4632 30.0207C80.4632 13.5091 67.7325 0.123749 52.0285 0.123749C36.3245 0.123749 23.5939 13.5091 23.5939 30.0207C23.5939 46.5324 36.3245 59.9178 52.0285 59.9178Z" fill="#FCCC63"/>
<path d="M87.388 29.7809H16.2365C14.0735 29.7809 12.3199 31.6246 12.3199 33.899V34.6308C12.3199 36.9051 14.0735 38.7488 16.2365 38.7488H87.388C89.551 38.7488 91.3046 36.9051 91.3046 34.6308V33.899C91.3046 31.6246 89.551 29.7809 87.388 29.7809Z" fill="#F2F2F2"/>
<path d="M105.083 37.4216H33.932C31.7689 37.4216 30.0154 39.2653 30.0154 41.5396V42.2714C30.0154 44.5458 31.7689 46.3895 33.932 46.3895H105.083C107.246 46.3895 109 44.5458 109 42.2714V41.5396C109 39.2653 107.246 37.4216 105.083 37.4216Z" fill="#F2F2F2"/>
<path d="M75.068 44.0658H3.91659C1.75352 44.0658 0 45.9095 0 48.1839V48.9157C0 51.19 1.75352 53.0337 3.91659 53.0337H75.068C77.2311 53.0337 78.9846 51.19 78.9846 48.9157V48.1839C78.9846 45.9095 77.2311 44.0658 75.068 44.0658Z" fill="#F2F2F2"/>
</svg>
