<svg width="67" height="57" viewBox="0 0 45 36" fill="none" xmlns="http://www.w3.org/2000/svg">
<g clip-path="url(#clip0)">
<path d="M24.4258 3.5563C23.6789 2.49856 22.9073 1.40533 22.2846 0.231982C22.1202 -0.0773273 21.6618 -0.0773273 21.4984 0.231982C20.8747 1.40533 20.1032 2.49856 19.3562 3.5563C17.8423 5.70118 16.4124 7.72741 16.4124 10.1238C16.4124 13.4795 18.8695 16.2086 21.891 16.2086C24.9125 16.2086 27.3697 13.4795 27.3697 10.1238C27.3697 7.72741 25.9398 5.70118 24.4258 3.5563Z" fill="#8CCBFE"/>
</g>
<g clip-path="url(#clip1)">
<path d="M8.49212 15.0781C7.84697 14.1645 7.18053 13.2202 6.64264 12.2067C6.50067 11.9396 6.10475 11.9396 5.96357 12.2067C5.4249 13.2202 4.75845 14.1645 4.1133 15.0781C2.80565 16.9307 1.57056 18.6808 1.57056 20.7507C1.57056 23.6492 3.69293 26.0063 6.30271 26.0063C8.9125 26.0063 11.0349 23.6492 11.0349 20.7507C11.0349 18.6808 9.79977 16.9307 8.49212 15.0781Z" fill="#8CCBFE"/>
</g>
<g clip-path="url(#clip2)">
<path d="M27.9007 23.3477C27.1538 22.2899 26.3822 21.1967 25.7594 20.0234C25.5951 19.7141 25.1367 19.7141 24.9732 20.0234C24.3496 21.1967 23.578 22.2899 22.8311 23.3477C21.3171 25.4926 19.8872 27.5188 19.8872 29.9152C19.8872 33.2709 22.3444 36 25.3659 36C28.3874 36 30.8446 33.2709 30.8446 29.9152C30.8446 27.5188 29.4146 25.4926 27.9007 23.3477Z" fill="#8CCBFE"/>
</g>
<path d="M41.2906 10.2015C40.6454 9.28787 39.979 8.3436 39.4411 7.33013C39.2991 7.06297 38.9032 7.06297 38.762 7.33013C38.2234 8.3436 37.5569 9.28787 36.9118 10.2015C35.6041 12.0541 34.369 13.8042 34.369 15.8741C34.369 18.7726 36.4914 21.1298 39.1012 21.1298C41.711 21.1298 43.8333 18.7726 43.8333 15.8741C43.8333 13.8042 42.5982 12.0541 41.2906 10.2015Z" fill="#8CCBFE"/>
<defs>
<clipPath id="clip0">
<rect x="14.594" width="14.5941" height="16.2086" fill="white"/>
</clipPath>
<clipPath id="clip1">
<rect y="12.0063" width="12.6055" height="14" fill="white"/>
</clipPath>
<clipPath id="clip2">
<rect x="18.0688" y="19.7914" width="14.5941" height="16.2086" fill="white"/>
</clipPath>
</defs>
</svg>
