<svg width="67" height="57" viewBox="0 0 67 57" fill="none" xmlns="http://www.w3.org/2000/svg">
<g clip-path="url(#clip0)">
<path d="M35.1474 5.57035C34.0726 3.91358 32.9624 2.20122 32.0663 0.363362C31.8298 -0.121121 31.1702 -0.121121 30.935 0.363362C30.0376 2.20122 28.9273 3.91358 27.8526 5.57035C25.6741 8.92996 23.6165 12.1037 23.6165 15.8573C23.6165 21.1135 27.1522 25.3881 31.5 25.3881C35.8477 25.3881 39.3835 21.1135 39.3835 15.8573C39.3835 12.1037 37.3259 8.92996 35.1474 5.57035Z" fill="#2196F3"/>
</g>
<g clip-path="url(#clip1)">
<path d="M14.1474 24.3763C13.0726 22.7196 11.9624 21.0072 11.0663 19.1693C10.8298 18.6848 10.1702 18.6848 9.935 19.1693C9.03759 21.0072 7.92734 22.7196 6.85255 24.3763C4.67408 27.7359 2.61649 30.9097 2.61649 34.6632C2.61649 39.9195 6.15223 44.194 10.5 44.194C14.8477 44.194 18.3835 39.9195 18.3835 34.6632C18.3835 30.9097 16.3259 27.7359 14.1474 24.3763Z" fill="#2196F3"/>
</g>
<g clip-path="url(#clip2)">
<path d="M40.1474 36.5704C39.0726 34.9136 37.9624 33.2012 37.0663 31.3634C36.8298 30.8789 36.1702 30.8789 35.935 31.3634C35.0376 33.2012 33.9273 34.9136 32.8526 36.5704C30.6741 39.93 28.6165 43.1037 28.6165 46.8573C28.6165 52.1135 32.1522 56.3881 36.5 56.3881C40.8477 56.3881 44.3835 52.1135 44.3835 46.8573C44.3835 43.1037 42.3259 39.93 40.1474 36.5704Z" fill="#2196F3"/>
</g>
<path d="M61.5309 16.7644C60.4561 15.1076 59.3459 13.3952 58.4498 11.5574C58.2133 11.0729 57.5537 11.0729 57.3185 11.5574C56.4211 13.3952 55.3109 15.1076 54.2361 16.7644C52.0576 20.124 50 23.2977 50 27.0513C50 32.3075 53.5357 36.5821 57.8835 36.5821C62.2312 36.5821 65.767 32.3075 65.767 27.0513C65.767 23.2977 63.7094 20.124 61.5309 16.7644Z" fill="#2196F3"/>
<defs>
<clipPath id="clip0">
<rect x="21" width="21" height="25.3881" fill="white"/>
</clipPath>
<clipPath id="clip1">
<rect y="18.806" width="21" height="25.3881" fill="white"/>
</clipPath>
<clipPath id="clip2">
<rect x="26" y="31" width="21" height="25.3881" fill="white"/>
</clipPath>
</defs>
</svg>
