<svg width="53" height="44" viewBox="0 0 53 44" fill="none" xmlns="http://www.w3.org/2000/svg">
<g clip-path="url(#clip0)">
<path d="M27.8031 4.28614C26.9529 3.01133 26.0747 1.69374 25.3658 0.27959C25.1787 -0.0931968 24.657 -0.0931968 24.4709 0.27959C23.761 1.69374 22.8828 3.01133 22.0326 4.28614C20.3093 6.8712 18.6816 9.31326 18.6816 12.2014C18.6816 16.2459 21.4786 19.535 24.9178 19.535C28.3571 19.535 31.154 16.2459 31.154 12.2014C31.154 9.31326 29.5264 6.8712 27.8031 4.28614Z" fill="#2196F3"/>
</g>
<g clip-path="url(#clip1)">
<path d="M11.1912 18.7565C10.341 17.4817 9.46278 16.1641 8.75393 14.7499C8.56684 14.3771 8.04508 14.3771 7.85904 14.7499C7.14915 16.1641 6.27088 17.4817 5.42068 18.7565C3.69741 21.3415 2.06976 23.7836 2.06976 26.6718C2.06976 30.7162 4.8667 34.0053 8.30596 34.0053C11.7452 34.0053 14.5422 30.7162 14.5422 26.6718C14.5422 23.7836 12.9145 21.3415 11.1912 18.7565Z" fill="#2196F3"/>
</g>
<g clip-path="url(#clip2)">
<path d="M31.7584 28.1393C30.9082 26.8645 30.03 25.5469 29.3211 24.1327C29.134 23.76 28.6123 23.76 28.4262 24.1327C27.7163 25.5469 26.8381 26.8645 25.9879 28.1393C24.2646 30.7244 22.637 33.1664 22.637 36.0546C22.637 40.099 25.4339 43.3881 28.8732 43.3881C32.3124 43.3881 35.1094 40.099 35.1094 36.0546C35.1094 33.1664 33.4817 30.7244 31.7584 28.1393Z" fill="#2196F3"/>
</g>
<path d="M48.6738 12.8995C47.8236 11.6247 46.9453 10.3071 46.2365 8.89293C46.0494 8.52015 45.5276 8.52015 45.3416 8.89293C44.6317 10.3071 43.7534 11.6247 42.9032 12.8995C41.18 15.4845 39.5523 17.9266 39.5523 20.8148C39.5523 24.8592 42.3492 28.1483 45.7885 28.1483C49.2278 28.1483 52.0247 24.8592 52.0247 20.8148C52.0247 17.9266 50.3971 15.4845 48.6738 12.8995Z" fill="#2196F3"/>
<defs>
<clipPath id="clip0">
<rect x="16.6119" width="16.6119" height="19.535" fill="white"/>
</clipPath>
<clipPath id="clip1">
<rect y="14.4703" width="16.6119" height="19.535" fill="white"/>
</clipPath>
<clipPath id="clip2">
<rect x="20.5672" y="23.8531" width="16.6119" height="19.535" fill="white"/>
</clipPath>
</defs>
</svg>
