<?xml version="1.0" encoding="UTF-8" standalone="no"?>
<svg
   xmlns:dc="http://purl.org/dc/elements/1.1/"
   xmlns:cc="http://creativecommons.org/ns#"
   xmlns:rdf="http://www.w3.org/1999/02/22-rdf-syntax-ns#"
   xmlns:svg="http://www.w3.org/2000/svg"
   xmlns="http://www.w3.org/2000/svg"
   xmlns:sodipodi="http://sodipodi.sourceforge.net/DTD/sodipodi-0.dtd"
   xmlns:inkscape="http://www.inkscape.org/namespaces/inkscape"
   width="45"
   height="45"
   viewBox="0 0 49.5 49.5"
   version="1.1"
   id="svg3753"
   sodipodi:docname="sunny.svg"
   style="fill:none"
   inkscape:version="0.92.4 (5da689c313, 2019-01-14)">
  <metadata
     id="metadata3759">
    <rdf:RDF>
      <cc:Work
         rdf:about="">
        <dc:format>image/svg+xml</dc:format>
        <dc:type
           rdf:resource="http://purl.org/dc/dcmitype/StillImage" />
        <dc:title></dc:title>
      </cc:Work>
    </rdf:RDF>
  </metadata>
  <defs
     id="defs3757" />
  <sodipodi:namedview
     pagecolor="#ffffff"
     bordercolor="#666666"
     borderopacity="1"
     objecttolerance="10"
     gridtolerance="10"
     guidetolerance="10"
     inkscape:pageopacity="0"
     inkscape:pageshadow="2"
     inkscape:window-width="1920"
     inkscape:window-height="1057"
     id="namedview3755"
     showgrid="true"
     scale-x="1.1"
     inkscape:zoom="8.34386"
     inkscape:cx="7.0389425"
     inkscape:cy="28.287543"
     inkscape:window-x="-8"
     inkscape:window-y="-8"
     inkscape:window-maximized="1"
     inkscape:current-layer="svg3753">
    <inkscape:grid
       type="xygrid"
       id="grid828" />
  </sodipodi:namedview>
  <ellipse
     id="path3777"
     cx="22.515335"
     cy="24.891136"
     rx="22.449404"
     ry="19.911072" />
  <ellipse
     id="path3779"
     cx="38.86615"
     cy="41.703465"
     rx="0.23075746"
     ry="0.3296535" />
  <ellipse
     id="path3781"
     cx="30.459984"
     cy="41.637535"
     rx="30.855568"
     ry="28.482063" />
  <ellipse
     id="path3783"
     cx="33.459831"
     cy="32.868752"
     rx="0.23075746"
     ry="3.8899114" />
  <ellipse
     id="path3785"
     cx="37.811256"
     cy="34.912605"
     rx="0.42854956"
     ry="0.52744561" />
  <ellipse
     id="path3787"
     cx="39.822144"
     cy="38.011345"
     rx="5.933763"
     ry="5.274456" />
  <ellipse
     id="path3789"
     cx="11.142288"
     cy="32.506134"
     rx="0.1318614"
     ry="0.032965351" />
  <ellipse
     id="path3791"
     cx="20.636311"
     cy="24.627413"
     rx="20.70224"
     ry="19.71328" />
  <ellipse
     id="path3793"
     cx="43.415367"
     cy="44.769241"
     rx="2.076817"
     ry="0.56041098" />
  <ellipse
     id="path3795"
     cx="22.581266"
     cy="25.055964"
     rx="22.581266"
     ry="20.009968" />
  <path
     style="stroke-width:0.0659307"
     d="M 20.703995,44.477759 C 14.907833,44.019383 9.6961471,41.764623 5.8859901,38.066963 2.738988,35.012878 0.82014091,31.383957 0.19862672,27.31103 -0.04264035,25.72995 0.0011966,23.305018 0.30106584,21.644395 1.7196427,13.78857 8.5180446,7.3624598 17.327979,5.5499032 c 1.836031,-0.377745 2.919102,-0.4819141 5.057248,-0.4864026 2.053873,-0.00431 2.841467,0.053767 4.450736,0.3282032 5.843404,0.9965051 11.089664,4.0824027 14.398729,8.4694622 1.971157,2.613303 3.176156,5.519639 3.608298,8.702853 0.151791,1.118119 0.151791,3.299238 0,4.417357 -0.866305,6.381321 -4.992695,11.856738 -11.301642,14.996445 -2.490381,1.239362 -5.073147,2.005946 -8.024412,2.381704 -0.758115,0.09652 -4.061358,0.177671 -4.812941,0.118234 z"
     id="path3799"
     inkscape:connector-curvature="0" />
  <path
     style="stroke-width:0.0659307"
     d="M 20.703995,44.477759 C 14.907833,44.019383 9.6961471,41.764623 5.8859901,38.066963 2.738988,35.012878 0.82014091,31.383957 0.19862672,27.31103 -0.04264035,25.72995 0.0011966,23.305018 0.30106584,21.644395 1.7196427,13.78857 8.5180446,7.3624598 17.327979,5.5499032 c 1.836031,-0.377745 2.919102,-0.4819141 5.057248,-0.4864026 2.053873,-0.00431 2.841467,0.053767 4.450736,0.3282032 5.843404,0.9965051 11.089664,4.0824027 14.398729,8.4694622 1.971157,2.613303 3.176156,5.519639 3.608298,8.702853 0.151791,1.118119 0.151791,3.299238 0,4.417357 -0.866305,6.381321 -4.992695,11.856738 -11.301642,14.996445 -2.490381,1.239362 -5.073147,2.005946 -8.024412,2.381704 -0.758115,0.09652 -4.061358,0.177671 -4.812941,0.118234 z"
     id="path3801"
     inkscape:connector-curvature="0" />
  <path
     style="stroke-width:0.0659307"
     d="M 20.703995,44.477759 C 14.907833,44.019383 9.6961471,41.764623 5.8859901,38.066963 2.738988,35.012878 0.82014091,31.383957 0.19862672,27.31103 -0.04264035,25.72995 0.0011966,23.305018 0.30106584,21.644395 1.7196427,13.78857 8.5180446,7.3624598 17.327979,5.5499032 c 1.836031,-0.377745 2.919102,-0.4819141 5.057248,-0.4864026 2.053873,-0.00431 2.841467,0.053767 4.450736,0.3282032 5.843404,0.9965051 11.089664,4.0824027 14.398729,8.4694622 1.971157,2.613303 3.176156,5.519639 3.608298,8.702853 0.151791,1.118119 0.151791,3.299238 0,4.417357 -0.866305,6.381321 -4.992695,11.856738 -11.301642,14.996445 -2.490381,1.239362 -5.073147,2.005946 -8.024412,2.381704 -0.758115,0.09652 -4.061358,0.177671 -4.812941,0.118234 z"
     id="path3803"
     inkscape:connector-curvature="0" />
  <circle
     style="fill:#ffdf9c;stroke-width:1.10000002"
     id="path4533"
     cx="24.75"
     cy="24.75"
     r="24.75" />
</svg>
