<svg width="46" height="40" viewBox="0 0 46 40" fill="none" xmlns="http://www.w3.org/2000/svg">
<g clip-path="url(#clip0)">
<path d="M17.9568 5.67797C17.9568 3.63656 15.8427 2.01594 13.5557 2.01594C12.7896 2.01594 12.2889 2.02836 11.6729 2.3518C11.1248 0.883437 9.36108 0 7.5312 0C5.24353 0 3.38878 1.65445 3.38878 3.69586C3.38878 3.99031 3.43165 4.27516 3.50398 4.54969C1.47872 5.08414 0 6.75445 0 8.73586C0 11.1048 2.11408 13.0283 4.75062 13.0973C4.95385 13.0283 18.4762 11.0883 18.6879 11.0345L20.1752 6.31109C19.5623 5.91242 18.8079 5.67797 17.9568 5.67797Z" fill="#6C797A"/>
<path d="M39.7898 8.77311C39.9019 8.36897 39.9673 7.94897 39.9673 7.51514C39.9673 4.50756 37.1244 2.06897 33.6165 2.06897C30.811 2.06897 28.1067 3.371 27.2665 5.53514C26.3228 5.05788 25.555 5.03999 24.38 5.03999C21.1539 5.03999 18.3937 6.98553 17.9716 9.63858L17.9093 21.3793H36.503H37.6578C41.8026 21.3793 45.1625 18.4972 45.1625 14.9427C45.1625 12.0234 42.895 9.56139 39.7898 8.77311Z" fill="#AFB6BB"/>
<path d="M27.2533 14.4828C27.2533 11.4745 24.2897 9.17792 20.7826 9.17792C19.6076 9.17792 18.8398 9.19589 17.8961 9.67308C17.0559 7.50894 14.3508 6.20691 11.5461 6.20691C8.03902 6.20691 5.19607 8.6455 5.19607 11.6531C5.19607 12.0869 5.26152 12.5062 5.37284 12.911C2.26748 13.6993 0 16.1614 0 19.0807C0 22.6352 3.35993 25.5173 7.50474 25.5173H8.65948H13.192H17.9614H25.4008H27.1325C30.6396 25.5173 33.4826 23.0787 33.4826 20.0711C33.4826 17.0635 30.7604 14.4828 27.2533 14.4828Z" fill="#E7ECED"/>
<path d="M21.8026 28.2759H17.1307L20.2453 17.931L9.34399 29.6552H14.016L10.9013 40L21.8026 28.2759Z" fill="#EBBA16"/>
</g>
<defs>
<clipPath id="clip0">
<rect width="45.1625" height="40" fill="white"/>
</clipPath>
</defs>
</svg>
