<svg width="63" height="59" viewBox="0 0 63 59" fill="none" xmlns="http://www.w3.org/2000/svg">
<g clip-path="url(#clip0)">
<path d="M25.049 8.375C25.049 5.36393 22.1 2.97351 18.9097 2.97351C17.8409 2.97351 17.1425 2.99183 16.2833 3.4689C15.5187 1.30307 13.0583 0 10.5057 0C7.31452 0 4.72721 2.44032 4.72721 5.45139C4.72721 5.88571 4.78702 6.30586 4.88791 6.71079C2.06276 7.49911 0 9.96282 0 12.8854C0 16.3796 2.94906 19.2167 6.62694 19.3185C6.91043 19.2167 25.7735 16.3552 26.069 16.2759L28.1437 9.30886C27.2887 8.72082 26.2363 8.375 25.049 8.375Z" fill="#6C797A"/>
<path d="M55.5052 12.9404C55.6616 12.3443 55.7529 11.7248 55.7529 11.0849C55.7529 6.64868 51.7871 3.05176 46.8938 3.05176C42.9802 3.05176 39.2078 4.97225 38.0358 8.16436C36.7193 7.46039 35.6483 7.43401 34.0092 7.43401C29.509 7.43401 25.6585 10.3037 25.0697 14.2169L24.9828 31.5345H50.9204H52.5312C58.313 31.5345 63 27.2834 63 22.0405C63 17.7346 59.837 14.1031 55.5052 12.9404Z" fill="#AFB6BB"/>
<path d="M38.0173 21.362C38.0173 16.9248 33.8832 13.5374 28.9909 13.5374C27.3518 13.5374 26.2808 13.5639 24.9644 14.2678C23.7923 11.0756 20.0189 9.15515 16.1063 9.15515C11.2141 9.15515 7.24832 12.7521 7.24832 17.1883C7.24832 17.8282 7.33962 18.4466 7.49491 19.0438C3.16304 20.2065 0 23.8381 0 28.144C0 33.3869 4.68698 37.638 10.4688 37.638H12.0796H18.4024H25.0554H35.4331H37.8488C42.7411 37.638 46.7069 34.0411 46.7069 29.6049C46.7069 25.1687 42.9095 21.362 38.0173 21.362Z" fill="#E7ECED"/>
<path d="M30.4138 41.7069H23.8966L28.2414 26.4482L13.0345 43.7414H19.5518L15.2069 59L30.4138 41.7069Z" fill="#EBBA16"/>
</g>
<defs>
<clipPath id="clip0">
<rect width="63" height="59" fill="white"/>
</clipPath>
</defs>
</svg>
